<svg xmlns="http://www.w3.org/2000/svg" viewBox="0 0 92 84.6"><defs><style>.cls-1{fill:#fff;}</style></defs><g id="Layer_2" data-name="Layer 2"><g id="Cards"><path class="cls-1" d="M92,50.5C92,60.16,86.16,68,76.5,68c-.34,0-.68,0-1,0C66.43,67.48,61,60.32,61,51c0-8.44,4.46-15.87,12-17.61C69.38,18.6,58.44,7.86,45.5,7.86S21.71,18.5,18,33.2c8.15,1.31,13,9,13,17.8,0,9.66-5.84,17-15.5,17S0,60.66,0,51c0-8,4-15,10.78-17.26C14.18,14.47,28.44,0,45.5,0S76.66,14.3,80.17,33.41C87.62,35.13,92,42.13,92,50.5Z"/><path class="cls-1" d="M77.49,63.09A34.55,34.55,0,0,1,75,69.87a30.92,30.92,0,0,1-3.85,6.06,21.88,21.88,0,0,1-5.38,4.77l-1.56.93-1.66.74a8.76,8.76,0,0,1-.84.35l-.87.26-1.75.51.06,0c-.58.19-1.09.35-1.62.57a8,8,0,0,1-1.59.52,3.57,3.57,0,0,1-1.56-.09,3,3,0,0,1-1.47-1l.11-1a3.24,3.24,0,0,1,1.54-.7,3.77,3.77,0,0,1,1.46.06,14.74,14.74,0,0,1,1.44.52,2.48,2.48,0,0,0,1.37.15l0,0h0l1.69-.42.85-.2c.28-.08.54-.21.81-.31L63.88,81l1.53-.84a20.1,20.1,0,0,0,5.31-4.54,26.49,26.49,0,0,0,3.71-6,28.18,28.18,0,0,0,2.08-6.69Z"/></g></g></svg>