<svg xmlns="http://www.w3.org/2000/svg" viewBox="0 0 180.06 39.54"><defs><style>.cls-1{fill:#e9504f;}</style></defs><g id="Layer_3" data-name="Layer 3"><path class="cls-1" d="M21.65,35.23v5.14a1,1,0,0,1-1,1H3.74a1,1,0,0,1-1-1V4a1,1,0,0,1,1-1H9a1,1,0,0,1,1,1V33.23a1,1,0,0,0,1,1h9.65A1,1,0,0,1,21.65,35.23Z" transform="translate(-2.74 -2.74)"/></g><g id="Layer_2" data-name="Layer 2"><path class="cls-1" d="M53.54,24.8v4.14a1,1,0,0,1-1,1H36a1,1,0,0,1-1-1V24.8a1,1,0,0,1,1-1H52.57A1,1,0,0,1,53.54,24.8Z" transform="translate(-2.74 -2.74)"/><path class="cls-1" d="M52.15,33.13a15,15,0,1,1,.46-11.2.38.38,0,0,1-.36.5H45.8a.37.37,0,0,1-.3-.16,8.44,8.44,0,1,0-.85,10.46.36.36,0,0,1,.27-.12l6.88,0A.39.39,0,0,1,52.15,33.13Z" transform="translate(-2.74 -2.74)"/></g><g id="Layer_4" data-name="Layer 4"><path class="cls-1" d="M72.7,12.39H69.53A11.44,11.44,0,0,0,58.09,23.83V40.39a1,1,0,0,0,1,1h5.06a1,1,0,0,0,1-1V25.13A6.23,6.23,0,0,1,71,18.82a6.06,6.06,0,0,1,6.26,6.06V40.39a1,1,0,0,0,1,1h4.85a1,1,0,0,0,1-1V23.83A11.44,11.44,0,0,0,72.7,12.39Z" transform="translate(-2.74 -2.74)"/></g><g id="Layer_5" data-name="Layer 5"><path class="cls-1" d="M87,14.28,95.28,40.7a1,1,0,0,0,1,.7h4.65a1,1,0,0,0,1-.72L107,22.89l5.48,17.8a1,1,0,0,0,1,.71h4.32a1,1,0,0,0,1-.7L127,14.28A1,1,0,0,0,126,13h-5.37a1,1,0,0,0-1,.73l-4.59,16.75-5-16.77a1,1,0,0,0-1-.71h-4.46a1,1,0,0,0-1,.72l-4.8,16.55L94.25,13.71a1,1,0,0,0-1-.72H88A1,1,0,0,0,87,14.28Z" transform="translate(-2.74 -2.74)"/></g><g id="Layer_6" data-name="Layer 6"><path class="cls-1" d="M141.91,24.3h10a8.2,8.2,0,1,0-7.56,11.47,8.08,8.08,0,0,0,5.71-2.36,1,1,0,0,1,.71-.31h5.88a1,1,0,0,1,.89,1.49,15.09,15.09,0,0,1-13.22,7.69,14.8,14.8,0,1,1,15.06-14.8,15.27,15.27,0,0,1-.12,1.93,1,1,0,0,1-1,.84H141.91a1,1,0,0,1-1-1V25.3A1,1,0,0,1,141.91,24.3Z" transform="translate(-2.74 -2.74)"/></g><g id="Layer_7" data-name="Layer 7"><rect class="cls-1" x="160.57" width="6.97" height="38.66" rx="1"/><rect class="cls-1" x="173.08" width="6.97" height="38.66" rx="1"/></g></svg>